<?xml version="1.0" encoding="utf-8"?>
<!-- Generator: Adobe Illustrator 17.1.0, SVG Export Plug-In . SVG Version: 6.00 Build 0)  -->
<svg version="1.2" baseProfile="tiny" id="Art" xmlns="http://www.w3.org/2000/svg" xmlns:xlink="http://www.w3.org/1999/xlink"
	 x="0px" y="0px" width="32px" height="32px" viewBox="0 0 32 32" xml:space="preserve">
<path fill="#CDCDCD" d="M32,28c0,2.2-1.8,4-4,4H4c-2.2,0-4-1.8-4-4V4c0-2.2,1.8-4,4-4h24c2.2,0,4,1.8,4,4V28z"/>
<g id="Temple__x28_M_x29_">
	<rect x="8" y="6" fill="none" width="15" height="20"/>
	<path fill="#FFFFFF" d="M15,20.4c-0.496,0-0.9-0.404-0.9-0.9V12c0-0.496,0.404-0.9,0.9-0.9h1c0.496,0,0.9,0.404,0.9,0.9v7.5
		c0,0.496-0.404,0.9-0.9,0.9H15z"/>
	<path fill="#FFFFFF" d="M10,20.9c-0.496,0-0.9-0.404-0.9-0.9v-4c0-0.496,0.404-0.9,0.9-0.9h1c0.496,0,0.9,0.404,0.9,0.9v4
		c0,0.496-0.404,0.9-0.9,0.9H10z"/>
	<path fill="#FFFFFF" d="M20,20.9c-0.496,0-0.9-0.404-0.9-0.9v-4c0-0.496,0.404-0.9,0.9-0.9h1c0.496,0,0.9,0.404,0.9,0.9v4
		c0,0.496-0.404,0.9-0.9,0.9H20z"/>
	<path fill="#FFFFFF" d="M14,20.9c-0.496,0-0.9-0.404-0.9-0.9v-5c0-0.496,0.404-0.9,0.9-0.9h3c0.496,0,0.9,0.404,0.9,0.9v5
		c0,0.496-0.404,0.9-0.9,0.9H14z"/>
	<path fill="#FFFFFF" d="M11,16c0,0.55-0.225,1-0.5,1S10,16.55,10,16v-3c0-0.55,0.225-1,0.5-1s0.5,0.45,0.5,1V16z"/>
	<path fill="#FFFFFF" d="M21,16c0,0.55-0.225,1-0.5,1S20,16.55,20,16v-3c0-0.55,0.225-1,0.5-1s0.5,0.45,0.5,1V16z"/>
	<path fill="#FFFFFF" d="M16,12.001c0,0.55-0.225,1-0.5,1s-0.5-0.45-0.5-1v-5c0-0.55,0.225-1,0.5-1s0.5,0.45,0.5,1V12.001z"/>
	<path fill="#FFFFFF" d="M13.1,25.9v-6.371c0-0.801,0.854-1.429,1.901-1.429h1c1.042,0,1.894,0.625,1.899,1.393V25.9H13.1z"/>
	<path fill="#FFFFFF" d="M19.1,25.9v-6.371c0-0.801,0.853-1.429,1.9-1.429s1.9,0.852,1.9,1.9v5c0,0.496-0.404,0.9-0.9,0.9H19.1z"/>
	<path fill="#FFFFFF" d="M9,25.9c-0.496,0-0.9-0.404-0.9-0.9v-5c0-1.048,0.852-1.9,1.9-1.9s1.9,0.628,1.9,1.4v6.4H9z"/>
</g>
</svg>
