<?xml version="1.0" encoding="utf-8"?>
<!-- Generator: Adobe Illustrator 17.1.0, SVG Export Plug-In . SVG Version: 6.00 Build 0)  -->
<svg version="1.2" baseProfile="tiny" id="Art" xmlns="http://www.w3.org/2000/svg" xmlns:xlink="http://www.w3.org/1999/xlink"
	 x="0px" y="0px" width="32px" height="32px" viewBox="0 0 32 32" xml:space="preserve">
<path fill="#448EF7" d="M32,28c0,2.2-1.8,4-4,4H4c-2.2,0-4-1.8-4-4V4c0-2.2,1.8-4,4-4h24c2.2,0,4,1.8,4,4V28z"/>
<path fill="#FFFFFF" d="M16,24.9c-5.374,0-7.877-0.859-7.877-1.44l0.463-3.052c0.081-0.535,0.722-1.264,1.171-1.465
	c0.101-0.045,0.302-0.121,0.563-0.22c2.013-0.761,3.275-1.317,3.486-1.784c0.303-0.668,0.016-1.99,0.003-2.045
	c-0.322-0.511-0.574-1.035-0.782-1.636l-0.026-0.075l-0.105-0.067c-0.003,0-0.007,0-0.01,0c-0.435,0-0.781-0.545-0.87-1.035
	c-0.112-0.605-0.018-0.8,0.029-0.855c0.02-0.024,0.059-0.057,0.15-0.057l0.176,0.026l0.104-0.172c0.014-0.06-0.05-0.823-0.136-1.347
	c-0.006-0.025-0.408-1.723,0.687-2.226c0.208-0.151,0.376-0.179,0.486-0.179c0.06,0,0.121,0.008,0.182,0.024l0.087,0.023L13.9,7.257
	c0.069-0.17,0.434-0.957,1.602-0.957c0.122,0,0.251,0.008,0.389,0.027c0.134,0.024,0.843,0.147,1.46,0.147
	c0.208,0.006,0.569,0.069,0.674,0.184c0.016,0.013,0.457,0.326,0.981,0.4l-0.065,0.053l0.208,0.152
	c0.006,0.004,0.422,0.314,0.49,0.739c0.006,0.021,0.107,0.271,0.412,0.392l-0.02,0.087c-0.01,0.126-0.083,1.099-0.519,2.437
	l-0.102,0.312l0.324-0.052c0.011,0,0.021,0,0.03,0c0.101,0,0.118,0.008,0.132,0.015c0.114,0.137,0.184,0.35,0.084,0.887
	c-0.023,0.131-0.068,0.272-0.13,0.411c-0.046,0.098-0.083,0.167-0.124,0.231c-0.08,0.119-0.13,0.183-0.184,0.235
	c-0.058,0.052-0.103,0.086-0.158,0.117c-0.103,0.046-0.146,0.057-0.18,0.057l-0.055-0.008l-0.103,0.032l-0.078,0.103
	c-0.208,0.598-0.462,1.126-0.755,1.569c-0.016,0.04-0.335,1.424-0.023,2.113c0.211,0.467,1.474,1.023,3.443,1.768
	c0.284,0.107,0.5,0.188,0.605,0.236c0.45,0.2,1.091,0.93,1.171,1.464l0.462,3.059c0,0.06-0.041,0.139-0.122,0.221
	C23.152,24.291,20.523,24.9,16,24.9z"/>
</svg>
