<?xml version="1.0" encoding="utf-8"?>
<!-- Generator: Adobe Illustrator 17.1.0, SVG Export Plug-In . SVG Version: 6.00 Build 0)  -->
<svg version="1.2" baseProfile="tiny" id="Art" xmlns="http://www.w3.org/2000/svg" xmlns:xlink="http://www.w3.org/1999/xlink"
	 x="0px" y="0px" width="32px" height="32px" viewBox="0 0 32 32" xml:space="preserve">
<path fill="#333331" d="M32,28c0,2.2-1.8,4-4,4H4c-2.2,0-4-1.8-4-4V4c0-2.2,1.8-4,4-4h24c2.2,0,4,1.8,4,4V28z"/>
<path fill="#FFFFFF" d="M16,26c-5.132,0-8.708-0.794-8.708-1.506l0.013-0.185c0.029-0.422,0.06-0.859,0.168-1.275
	c0.046-0.176,0.096-0.4,0.151-0.646c0.144-0.651,0.324-1.461,0.556-1.864c0.429-0.74,0.932-1.045,1.709-1.348
	c0.215-0.084,0.407-0.202,0.596-0.32c0.15-0.093,0.3-0.186,0.462-0.259c0.394-0.024,0.634-0.107,1.013-0.281
	c0.163-0.075,0.321-0.079,0.504-0.084c0.081-0.002,0.164-0.005,0.251-0.013c0.38-0.036,0.457-0.199,0.573-0.446l0.093-0.187
	c0.349-0.653,0.381-1.87,0.176-2.441l-0.072-0.208c-0.144-0.417-0.34-0.987-0.684-1.25c-0.073-0.057-0.147-0.107-0.219-0.155
	c-0.256-0.173-0.441-0.298-0.434-0.63c-0.079-0.119-0.086-0.174-0.096-0.269c-0.007-0.082-0.016-0.174-0.065-0.271
	c-0.028-0.057-0.086-0.113-0.147-0.173c-0.041-0.041-0.093-0.092-0.107-0.12c-0.079-0.149-0.138-0.251-0.182-0.327
	c-0.12-0.204-0.12-0.204-0.115-0.577l0.003-2.118c0.062-0.144,0.137-0.386,0.205-0.605c0.056-0.178,0.106-0.341,0.145-0.441
	l0.006-0.476c0.342-0.712,1.471-1.781,2.27-2.116c0.042-0.019,0.097-0.027,0.17-0.027c0.056,0,0.113,0.005,0.172,0.009
	c0.066,0.005,0.133,0.01,0.199,0.01c0.104,0,0.189-0.013,0.265-0.04l0.191-0.075C15.192,5.233,15.271,5.2,15.38,5.2
	c0.086,0,0.19,0.02,0.34,0.064l1.349-0.045c0.046,0.016,0.108,0.065,0.174,0.118c0.061,0.048,0.122,0.097,0.195,0.123l0.499-0.043
	c0.028,0.017,0.596,0.267,0.698,0.329c0.777,0.469,1.224,1.498,1.618,2.406c0.073,0.17,0.146,0.336,0.219,0.496
	c0.123,0.27,0.097,0.732,0.072,1.178c-0.021,0.375-0.043,0.759,0.022,1.052c0.032,0.144,0.077,0.222,0.134,0.222
	c-0.001,0-0.002,0-0.003,0c-0.033,0-0.062,0.125-0.081,0.2c-0.069,0.282-0.17,0.515-0.268,0.739
	c-0.151,0.35-0.295,0.682-0.294,1.142c-0.023,0.011-0.05,0.023-0.078,0.036c-0.13,0.058-0.276,0.123-0.35,0.203
	c-0.123,0.192-0.193,0.392-0.262,0.585c-0.072,0.205-0.141,0.399-0.253,0.552c-0.084,0.118-0.187,0.226-0.287,0.334
	c-0.12,0.129-0.24,0.257-0.331,0.395c-0.122,0.185-0.063,0.581-0.008,0.964c0.03,0.201,0.058,0.391,0.049,0.493
	c-0.065,0.749,0.149,1.182,0.721,1.449c0.335,0.156,0.695,0.224,1.045,0.29c0.199,0.038,0.397,0.075,0.591,0.128
	c0.389,0.107,0.83,0.229,1.244,0.435c0.177,0.087,0.37,0.149,0.565,0.212c0.238,0.076,0.484,0.155,0.693,0.284
	c0.493,0.306,0.89,1.133,1.178,2.458l0.067,0.328c0.065,0.334,0.127,1.595,0.071,2.157C24.711,25.206,21.133,26,16,26z"/>
</svg>
