<?xml version="1.0" encoding="utf-8"?>
<!-- Generator: Adobe Illustrator 17.1.0, SVG Export Plug-In . SVG Version: 6.00 Build 0)  -->
<svg version="1.2" baseProfile="tiny" id="Art" xmlns="http://www.w3.org/2000/svg" xmlns:xlink="http://www.w3.org/1999/xlink"
	 x="0px" y="0px" width="32px" height="32px" viewBox="0 0 32 32" xml:space="preserve">
<path fill="#E2427C" d="M32,28c0,2.2-1.8,4-4,4H4c-2.2,0-4-1.8-4-4V4c0-2.2,1.8-4,4-4h24c2.2,0,4,1.8,4,4V28z"/>
<path fill="#FFFFFF" d="M16,24.9c-5.066,0-8.3-0.796-8.3-1.345l0.437-2.958c0.078-0.545,0.595-1.174,1.128-1.375l4.486-1.701v-0.308
	l-0.188-0.049c-2.897-0.169-3.635-2.038-3.816-2.806c0.086,0.012,0.187,0.021,0.297,0.021c0.354,0,0.855-0.094,1.235-0.541
	c0.521-0.613,0.656-1.709,0.402-3.259c-0.039-0.239-0.047-0.473-0.025-0.736c-0.022-0.849,0.3-1.652,0.905-2.274
	C13.357,6.751,14.578,6.3,16,6.3c1.421,0,2.642,0.45,3.437,1.267c0.606,0.623,0.928,1.423,0.907,2.254l-0.003,0.124
	c-0.005,0.21-0.009,0.407-0.045,0.627c-0.254,1.549-0.119,2.646,0.402,3.259c0.38,0.447,0.881,0.541,1.235,0.541
	c0.1,0,0.201-0.007,0.301-0.021c-0.168,0.767-0.88,2.634-3.819,2.806l-0.094,0.005l-0.094,0.1v0.209l0.1,0.083l4.383,1.668
	c0.532,0.2,1.049,0.831,1.13,1.376c0.218,1.385,0.453,2.896,0.459,2.972C24.3,24.107,21.066,24.9,16,24.9z"/>
</svg>
